<svg version="1.0" xmlns="http://www.w3.org/2000/svg"
     width="32" height="32" viewBox="0 0 64.000000 64.000000"
     preserveAspectRatio="xMidYMid meet">

    <g transform="translate(0.000000,64.000000) scale(0.100000,-0.100000)"
       fill="currentColor" stroke="none">
        <path d="M230 565 c-78 -30 -83 -34 -60 -42 14 -5 53 -20 86 -32 l62 -23 68
25 c38 14 78 29 88 33 15 6 3 14 -55 36 -41 15 -81 30 -89 32 -8 3 -53 -10
-100 -29z"/>
        <path d="M140 255 l0 -215 35 0 35 0 0 95 0 95 110 0 110 0 0 -95 0 -95 35 0
35 0 0 215 c0 118 -2 215 -4 215 -1 0 -17 -5 -35 -11 l-31 -11 0 -74 0 -74
-110 0 -110 0 0 74 0 74 -31 11 c-18 6 -34 11 -35 11 -2 0 -4 -97 -4 -215z"/>
    </g>
</svg>
