<svg version="1.0" xmlns="http://www.w3.org/2000/svg"
     fill="none"
 width="60.000000pt" height="59.000000pt" viewBox="0 0 60.000000 59.000000"
 preserveAspectRatio="xMidYMid meet">

<g transform="translate(0.000000,59.000000) scale(0.011628,-0.010669)"
fill="#000000" stroke="none">
<path d="M2646 5512 c-4 -4 -35 -5 -69 -4 -34 2 -84 -2 -112 -8 -53 -12 -129
-22 -157 -22 -10 1 -18 -3 -18 -8 0 -5 -25 -12 -55 -15 -30 -4 -55 -11 -55
-15 0 -4 -17 -11 -37 -15 -21 -4 -42 -10 -48 -15 -5 -4 -19 -10 -30 -12 -11
-1 -22 -5 -25 -8 -3 -3 -25 -15 -50 -28 -70 -35 -122 -65 -157 -89 -17 -13
-33 -23 -36 -23 -11 0 -86 -69 -178 -163 -253 -257 -372 -557 -355 -902 3 -71
9 -147 12 -167 l6 -38 -136 0 -136 0 0 -394 c0 -333 2 -395 14 -399 17 -7 294
0 342 8 70 12 118 80 133 191 6 36 12 68 14 70 2 3 24 -21 47 -53 57 -76 159
-191 243 -275 37 -37 67 -72 67 -78 0 -9 -358 -717 -631 -1246 -60 -117 -109
-217 -109 -224 0 -13 469 -9 509 5 39 13 18 -7 -36 -35 -26 -14 -54 -31 -61
-38 -7 -6 -20 -12 -28 -12 -8 0 -14 -4 -14 -10 0 -5 -5 -10 -11 -10 -7 0 -35
-15 -63 -33 -28 -19 -67 -42 -86 -53 -19 -10 -37 -22 -40 -25 -3 -3 -21 -14
-40 -24 -19 -10 -37 -21 -40 -24 -3 -4 -42 -29 -88 -55 -45 -26 -82 -50 -82
-52 0 -18 136 -245 194 -324 101 -137 250 -297 361 -387 158 -129 399 -243
625 -297 334 -79 774 -53 1085 66 121 46 275 129 349 188 313 250 478 521 540
888 21 122 21 387 0 507 -29 170 -82 317 -166 464 -26 46 -48 87 -48 91 0 4
29 51 65 104 89 132 159 281 192 401 23 88 27 119 27 260 1 190 -18 277 -89
415 -86 165 -196 270 -366 349 -129 59 -216 75 -381 67 -160 -7 -269 -34 -389
-97 -116 -61 -252 -183 -304 -273 -7 -12 -10 39 -10 166 l0 183 -212 3 -212 2
-28 48 c-99 162 -86 315 36 425 142 128 376 153 579 60 60 -27 156 -85 179
-109 8 -8 18 -14 22 -14 15 0 172 -162 241 -249 39 -50 74 -91 77 -91 6 0 123
98 133 111 3 4 25 23 50 44 25 21 78 67 119 104 72 64 106 95 261 231 41 36
92 81 113 101 l40 36 -69 79 c-112 130 -144 162 -265 268 -162 141 -163 142
-237 192 -37 24 -76 51 -87 60 -11 8 -30 17 -42 20 -13 4 -23 10 -23 15 0 5
-6 9 -12 9 -7 0 -42 15 -78 33 -66 34 -169 73 -182 69 -5 -1 -8 2 -8 8 0 6
-16 10 -35 10 -19 0 -35 4 -35 9 0 4 -11 6 -25 3 -14 -2 -25 0 -25 6 0 6 -8
11 -17 11 -25 0 -76 7 -152 21 -35 6 -87 10 -115 9 -29 -1 -57 0 -63 4 -6 4
-13 3 -17 -1z m1014 -1669 c167 -45 313 -159 397 -310 55 -99 77 -198 77 -353
1 -260 -51 -385 -302 -745 -425 -606 -477 -678 -512 -696 -29 -16 -57 -19
-172 -19 -76 0 -138 3 -138 7 0 3 19 31 42 62 41 55 72 96 482 624 115 148
206 270 204 273 -3 2 -36 -11 -74 -30 -249 -123 -532 -91 -713 79 -77 73 -133
161 -164 260 -29 94 -31 310 -3 395 23 71 79 174 122 227 70 86 197 172 314
212 117 41 317 48 440 14z m-1062 -100 c-5 -116 56 17 -513 -1128 -219 -440
-408 -815 -422 -833 -39 -53 -69 -62 -193 -62 -60 0 -110 2 -110 5 0 3 40 83
89 178 103 201 308 604 586 1152 109 215 218 423 243 464 36 58 42 75 31 82
-15 10 -870 12 -906 3 -23 -6 -24 -13 -38 -167 -9 -98 -23 -109 -128 -105
l-82 3 -3 253 -2 252 726 0 726 0 -4 -97z m-274 -1095 c22 -18 43 -35 46 -38
5 -6 214 -181 287 -240 85 -69 237 -204 307 -273 69 -67 79 -81 69 -96 -6 -10
-79 -107 -162 -215 -83 -108 -151 -201 -151 -206 0 -6 105 -10 275 -10 l275 0
0 -22 c0 -39 -26 -120 -54 -175 -50 -95 -232 -243 -299 -243 -9 0 -19 -4 -22
-10 -3 -5 -17 -10 -30 -10 -13 0 -26 -4 -30 -9 -7 -12 -304 -10 -311 1 -3 4
-15 8 -28 8 -12 0 -26 4 -32 8 -5 5 -30 17 -56 26 -27 10 -48 22 -48 27 0 5
-8 9 -18 9 -10 0 -31 10 -47 23 -172 133 -271 247 -408 470 -10 15 -22 27 -27
27 -5 0 -41 -20 -79 -45 -38 -25 -72 -45 -75 -45 -3 0 14 20 37 44 33 34 95
150 287 535 135 270 246 491 248 491 2 0 23 -15 46 -32z"/>
<path d="M3330 3624 c-212 -57 -332 -252 -301 -486 30 -226 182 -357 411 -358
170 0 320 83 394 219 83 153 60 378 -51 501 -107 119 -287 169 -453 124z m273
-158 c90 -44 137 -122 140 -235 3 -89 -17 -152 -66 -208 -39 -43 -122 -93
-158 -93 -9 0 -43 24 -76 53 -33 28 -110 95 -171 147 l-111 95 6 40 c21 149
142 239 310 231 52 -2 86 -10 126 -30z"/>
</g>
</svg>
