<svg width="40" height="41" xmlns="http://www.w3.org/2000/svg">
  <path id="svg_1" fill="#7566c1" d="m33.5306,23.7016c0,2.8739 -1.143,5.6301 -3.1774,7.6623c-2.0344,2.0322 -4.7937,3.1738 -7.6708,3.1738c-2.4063,0 -4.6351,-0.7881 -6.4299,-2.1081l15.1676,-15.1509c1.3215,1.7929 2.1105,4.0192 2.1105,6.4229z"/>
  <path id="svg_2" fill="#7566c1" d="m33.3925,31.346l2.2682,-5.4575l4.3393,5.0043l-6.6075,0.4532z"/>
  <path id="svg_3" fill="#7566c1" d="m35.6607,21.5738l-2.2485,-5.4772l6.5878,0.4728l-4.3393,5.0044z"/>
  <path id="svg_4" fill="#7566c1" d="m24.8521,36.6655l5.4635,-2.2657l-0.4734,6.6002l-4.9901,-4.3345z"/>
  <path id="svg_5" fill="#7566c1" d="m15.0493,34.3998l5.4635,2.2657l-4.9901,4.3148l-0.4734,-6.5805z"/>
  <path id="svg_6" fill="#7566c1" d="m33.6686,3.99952l2.8205,2.81739l-30.71,30.67609l-2.82051,-2.8174l30.71001,-30.67608z"/>
  <path id="svg_7" fill="#7566c1" d="m18.5602,6.95483l2.9191,1.83229l-1.0059,-3.29024l2.6627,-2.22634l-3.4122,-0.0591l-1.3215,-3.21144l-1.144,3.25084l-3.4517,0.23643l2.7416,2.08841l-0.8284,3.34935l2.8403,-1.9702zm-5.8778,7.50647l2.288,1.4383l-0.7889,-2.581l2.071,-1.7141l-2.6825,-0.0591l-1.0059,-2.50215l-0.8876,2.54155l-2.68242,0.1773l2.14992,1.6353l-0.6706,2.6007l2.209,-1.5368z" clip-rule="evenodd" fill-rule="evenodd"/>
  <path id="svg_8" fill="#7566c1" d="m10.8481,1.04421c-3.53055,2.26574 -5.91713,6.26526 -5.91713,10.83609c0,4.5709 2.38658,8.5704 5.97633,10.8362c-6.05523,0 -10.9073,-4.8467 -10.9073,-10.8362c0,-2.87388 1.14292,-5.63009 3.17734,-7.66226c2.03442,-2.03217 4.79368,-3.17383 7.67076,-3.17383z"/>
</svg>